<svg xmlns="http://www.w3.org/2000/svg" width="5080.38" height="2100.05" viewBox="0 0 5080.38 2100.05">
<defs>
    <marker id="arr-495057" markerWidth="10" markerHeight="7" refX="9" refY="3.5" orient="auto"><polygon points="0 0, 10 3.5, 0 7" fill="#495057"/></marker>
  </defs>
<rect width="5080.38" height="2100.05" fill="#ffffff"/>
<rect x="2874.50" y="40.00" width="841.00" height="55.00" rx="8" fill="#e7f5ff" stroke="#1971c2" stroke-width="2" opacity="1.00"/>
<rect x="3178.25" y="363.50" width="700.00" height="55.00" rx="8" fill="#e7f5ff" stroke="#1971c2" stroke-width="2" opacity="1.00"/>
<rect x="2894.50" y="202.75" width="211.00" height="55.00" rx="8" fill="#e7f5ff" stroke="#1971c2" stroke-width="2" opacity="1.00"/>
<rect x="3225.50" y="202.75" width="166.00" height="55.00" rx="8" fill="#e7f5ff" stroke="#1971c2" stroke-width="2" opacity="1.00"/>
<rect x="3511.50" y="202.75" width="184.00" height="55.00" rx="8" fill="#e7f5ff" stroke="#1971c2" stroke-width="2" opacity="1.00"/>
<rect x="1201.38" y="719.50" width="1775.00" height="55.00" rx="8" fill="#f8f9fa" stroke="#495057" stroke-width="2" opacity="1.00"/>
<rect x="3096.38" y="719.50" width="1550.00" height="55.00" rx="8" fill="#e7f5ff" stroke="#1971c2" stroke-width="2" opacity="1.00"/>
<rect x="4766.38" y="719.50" width="274.00" height="55.00" rx="8" fill="#e7f5ff" stroke="#1971c2" stroke-width="2" opacity="1.00"/>
<rect x="1070.69" y="1073.50" width="875.00" height="55.00" rx="8" fill="#e7f5ff" stroke="#1971c2" stroke-width="2" opacity="1.00"/>
<rect x="868.19" y="1429.50" width="1280.00" height="55.00" rx="8" fill="#e7f5ff" stroke="#1971c2" stroke-width="2" opacity="1.00"/>
<rect x="1428.53" y="1758.90" width="875.00" height="55.00" rx="8" fill="#e7f5ff" stroke="#1971c2" stroke-width="2" opacity="1.00"/>
<rect x="2268.19" y="1429.50" width="700.00" height="55.00" rx="8" fill="#e7f5ff" stroke="#1971c2" stroke-width="2" opacity="1.00"/>
<rect x="2142.50" y="40.00" width="220.00" height="55.00" rx="8" fill="#e7f5ff" stroke="#1971c2" stroke-width="2" opacity="1.00"/>
<rect x="1891.50" y="2005.05" width="184.00" height="55.00" rx="8" fill="#e7f5ff" stroke="#1971c2" stroke-width="2" opacity="1.00"/>
<rect x="2516.00" y="1073.50" width="724.00" height="55.00" rx="8" fill="#e7f5ff" stroke="#1971c2" stroke-width="2" opacity="1.00"/>
<rect x="4276.00" y="1073.50" width="400.00" height="55.00" rx="8" fill="#e7f5ff" stroke="#1971c2" stroke-width="2" opacity="1.00"/>
<rect x="1297.50" y="40.00" width="785.00" height="55.00" rx="8" fill="#e7f5ff" stroke="#1971c2" stroke-width="2" opacity="1.00"/>
<rect x="1002.50" y="40.00" width="175.00" height="55.00" rx="8" fill="#e7f5ff" stroke="#1971c2" stroke-width="2" opacity="1.00"/>
<rect x="528.00" y="40.00" width="148.00" height="55.00" rx="8" fill="#e7f5ff" stroke="#1971c2" stroke-width="2" opacity="1.00"/>
<rect x="40.00" y="40.00" width="148.00" height="55.00" rx="8" fill="#e7f5ff" stroke="#1971c2" stroke-width="2" opacity="1.00"/>
<rect x="1913.50" y="1870.05" width="140.00" height="55.00" rx="8" fill="#e7f5ff" stroke="#1971c2" stroke-width="2" opacity="1.00"/>
<path d="M 3088.75,95.00 L 3097.50,202.75" fill="none" stroke="#495057" stroke-width="2" opacity="1.00" marker-end="url(#arr-495057)"/>
<path d="M 3295.00,95.00 L 3295.00,202.75" fill="none" stroke="#495057" stroke-width="2" opacity="1.00" marker-end="url(#arr-495057)"/>
<path d="M 3501.25,95.00 L 3519.50,202.75" fill="none" stroke="#495057" stroke-width="2" opacity="1.00" marker-end="url(#arr-495057)"/>
<path d="M 3097.50,257.75 L 3414.25,363.50" fill="none" stroke="#495057" stroke-width="2" opacity="1.00" marker-end="url(#arr-495057)"/>
<path d="M 3383.50,257.75 L 3642.25,363.50" fill="none" stroke="#495057" stroke-width="2" opacity="1.00" marker-end="url(#arr-495057)"/>
<path d="M 3357.25,418.50 L 3104.48,538.90 L 2968.37,719.50" fill="none" stroke="#495057" stroke-width="2" opacity="1.00" marker-end="url(#arr-495057)"/>
<path d="M 3528.25,418.50 L 3528.25,719.50" fill="none" stroke="#495057" stroke-width="2" opacity="1.00" marker-end="url(#arr-495057)"/>
<path d="M 3699.25,418.50 L 4398.08,538.90 L 4774.37,719.50" fill="none" stroke="#495057" stroke-width="2" opacity="1.00" marker-end="url(#arr-495057)"/>
<path d="M 2616.57,774.50 L 2524.00,1073.50" fill="none" stroke="#495057" stroke-width="2" opacity="1.00" marker-end="url(#arr-495057)"/>
<path d="M 1561.17,774.50 L 1692.25,1073.50" fill="none" stroke="#495057" stroke-width="2" opacity="1.00" marker-end="url(#arr-495057)"/>
<path d="M 1912.97,774.50 L 1985.68,955.80 L 1985.68,1246.80 L 1824.18,1429.50" fill="none" stroke="#495057" stroke-width="2" opacity="1.00" marker-end="url(#arr-495057)"/>
<path d="M 2264.78,774.50 L 2494.50,1036.50 L 2618.19,1429.50" fill="none" stroke="#495057" stroke-width="2" opacity="1.00" marker-end="url(#arr-495057)"/>
<path d="M 3411.18,774.50 L 2373.65,894.10 L 1814.98,1073.50" fill="none" stroke="#495057" stroke-width="2" opacity="1.00" marker-end="url(#arr-495057)"/>
<path d="M 3717.97,774.50 L 3280.00,955.80 L 3280.00,1246.80 L 1982.18,1429.50" fill="none" stroke="#495057" stroke-width="2" opacity="1.00" marker-end="url(#arr-495057)"/>
<path d="M 4024.78,774.50 L 2208.19,955.80 L 2208.19,1594.82 L 2080.79,1758.90" fill="none" stroke="#495057" stroke-width="2" opacity="1.00" marker-end="url(#arr-495057)"/>
<path d="M 4331.57,774.50 L 3329.02,1036.50 L 2789.18,1429.50" fill="none" stroke="#495057" stroke-width="2" opacity="1.00" marker-end="url(#arr-495057)"/>
<path d="M 4774.38,774.50 L 4668.00,1073.50" fill="none" stroke="#495057" stroke-width="2" opacity="1.00" marker-end="url(#arr-495057)"/>
<path d="M 1365.02,1128.50 L 1666.19,1429.50" fill="none" stroke="#495057" stroke-width="2" opacity="1.00" marker-end="url(#arr-495057)"/>
<path d="M 1866.03,1484.50 L 1726.44,1594.26 L 1866.03,1758.90" fill="none" stroke="#495057" stroke-width="2" opacity="1.00" marker-end="url(#arr-495057)"/>
<path d="M 1651.35,1128.50 L 2168.64,1248.90 L 2447.18,1429.50" fill="none" stroke="#495057" stroke-width="2" opacity="1.00" marker-end="url(#arr-495057)"/>
<path d="M 2276.19,1484.50 L 2343.53,1648.58 L 2343.53,1977.05 L 2025.50,2005.05" fill="none" stroke="#495057" stroke-width="2" opacity="1.00" marker-end="url(#arr-495057)"/>
<path d="M 1983.50,1925.05 L 1983.50,2005.05" fill="none" stroke="#495057" stroke-width="2" opacity="1.00" marker-end="url(#arr-495057)"/>
<path d="M 1983.50,1813.90 L 1873.50,1825.20 L 1873.50,1977.05 L 1941.50,2005.05" fill="none" stroke="#495057" stroke-width="2" opacity="1.00" marker-end="url(#arr-495057)"/>
<path d="M 1497.75,95.00 L 1161.37,504.15 L 1161.37,892.20 L 1569.54,1073.50" fill="none" stroke="#495057" stroke-width="2" opacity="1.00" stroke-dasharray="12,6" marker-end="url(#arr-495057)"/>
<path d="M 1690.00,95.00 L 1010.69,504.15 L 1010.69,1246.80 L 1350.19,1429.50" fill="none" stroke="#495057" stroke-width="2" opacity="1.00" stroke-dasharray="12,6" marker-end="url(#arr-495057)"/>
<path d="M 1882.25,95.00 L 788.19,504.15 L 788.19,1594.82 L 1651.28,1758.90" fill="none" stroke="#495057" stroke-width="2" opacity="1.00" stroke-dasharray="12,6" marker-end="url(#arr-495057)"/>
<path d="M 1063.50,95.00 L 1161.38,504.15 L 1161.38,892.20 L 1446.83,1073.50" fill="none" stroke="#495057" stroke-width="2" opacity="1.00" stroke-dasharray="12,6" marker-end="url(#arr-495057)"/>
<path d="M 1116.50,95.00 L 1010.69,504.15 L 1010.69,1246.80 L 1192.19,1429.50" fill="none" stroke="#495057" stroke-width="2" opacity="1.00" stroke-dasharray="12,6" marker-end="url(#arr-495057)"/>
<path d="M 580.00,95.00 L 1063.68,486.40 L 1324.12,1073.50" fill="none" stroke="#495057" stroke-width="2" opacity="1.00" stroke-dasharray="12,6" marker-end="url(#arr-495057)"/>
<path d="M 624.00,95.00 L 1030.69,751.95 L 1030.69,1246.80 L 1508.19,1429.50" fill="none" stroke="#495057" stroke-width="2" opacity="1.00" stroke-dasharray="12,6" marker-end="url(#arr-495057)"/>
<path d="M 92.00,95.00 L 813.11,486.40 L 1201.40,1073.50" fill="none" stroke="#495057" stroke-width="2" opacity="1.00" stroke-dasharray="12,6" marker-end="url(#arr-495057)"/>
<path d="M 136.00,95.00 L 719.82,628.80 L 1034.19,1429.50" fill="none" stroke="#495057" stroke-width="2" opacity="1.00" stroke-dasharray="12,6" marker-end="url(#arr-495057)"/>
<text x="3295.00" y="57.50" font-size="16" font-family="cursive" fill="#1e1e1e" text-anchor="middle" opacity="1.00"><tspan x="3295.00" dy="16.00">&quot;App Router 路由层&quot;</tspan></text>
<text x="3528.25" y="381.00" font-size="16" font-family="cursive" fill="#1e1e1e" text-anchor="middle" opacity="1.00"><tspan x="3528.25" dy="16.00">&quot;共享组件层&quot;</tspan></text>
<text x="3000.00" y="220.25" font-size="16" font-family="cursive" fill="#1e1e1e" text-anchor="middle" opacity="1.00"><tspan x="3000.00" dy="16.00">&quot;/contracts/* 合同管理&quot;</tspan></text>
<text x="3308.50" y="220.25" font-size="16" font-family="cursive" fill="#1e1e1e" text-anchor="middle" opacity="1.00"><tspan x="3308.50" dy="16.00">&quot;/team/* 团队管理&quot;</tspan></text>
<text x="3603.50" y="220.25" font-size="16" font-family="cursive" fill="#1e1e1e" text-anchor="middle" opacity="1.00"><tspan x="3603.50" dy="16.00">&quot;/dashboard 仪表盘&quot;</tspan></text>
<text x="2088.88" y="737.00" font-size="16" font-family="cursive" fill="#1e1e1e" text-anchor="middle" opacity="1.00"><tspan x="2088.88" dy="16.00">&quot;Supabase Client 直读&lt;br/&gt;+ RLS 自动过滤&quot;</tspan></text>
<text x="3871.38" y="737.00" font-size="16" font-family="cursive" fill="#1e1e1e" text-anchor="middle" opacity="1.00"><tspan x="3871.38" dy="16.00">&quot;Server Actions&lt;br/&gt;权限验证+事件记录&quot;</tspan></text>
<text x="4903.38" y="737.00" font-size="16" font-family="cursive" fill="#1e1e1e" text-anchor="middle" opacity="1.00"><tspan x="4903.38" dy="16.00">&quot;Storage API&lt;br/&gt;PDF 上传下载&quot;</tspan></text>
<text x="1508.19" y="1091.00" font-size="16" font-family="cursive" fill="#1e1e1e" text-anchor="middle" opacity="1.00"><tspan x="1508.19" dy="16.00">&quot;contracts 合同表&quot;</tspan></text>
<text x="1508.19" y="1447.00" font-size="16" font-family="cursive" fill="#1e1e1e" text-anchor="middle" opacity="1.00"><tspan x="1508.19" dy="16.00">&quot;installment_plans 付款计划&quot;</tspan></text>
<text x="1866.03" y="1776.40" font-size="16" font-family="cursive" fill="#1e1e1e" text-anchor="middle" opacity="1.00"><tspan x="1866.03" dy="16.00">&quot;payments 回款记录&quot;</tspan></text>
<text x="2618.19" y="1447.00" font-size="16" font-family="cursive" fill="#1e1e1e" text-anchor="middle" opacity="1.00"><tspan x="2618.19" dy="16.00">&quot;leads 线索表&quot;</tspan></text>
<text x="2252.50" y="57.50" font-size="16" font-family="cursive" fill="#1e1e1e" text-anchor="middle" opacity="1.00"><tspan x="2252.50" dy="16.00">&quot;sales_targets 销售目标&quot;</tspan></text>
<text x="1983.50" y="2022.55" font-size="16" font-family="cursive" fill="#1e1e1e" text-anchor="middle" opacity="1.00"><tspan x="1983.50" dy="16.00">&quot;profiles 用户/角色&quot;</tspan></text>
<text x="2878.00" y="1091.00" font-size="16" font-family="cursive" fill="#1e1e1e" text-anchor="middle" opacity="1.00"><tspan x="2878.00" dy="16.00">&quot;统计视图层&lt;br/&gt;v_contract_summary&lt;br/&gt;v_sales_performance&lt;br/&gt;v_delivery_status&quot;</tspan></text>
<text x="4476.00" y="1091.00" font-size="16" font-family="cursive" fill="#1e1e1e" text-anchor="middle" opacity="1.00"><tspan x="4476.00" dy="16.00">&quot;Supabase Storage&lt;br/&gt;bucket: contracts&quot;</tspan></text>
<text x="1690.00" y="57.50" font-size="16" font-family="cursive" fill="#1e1e1e" text-anchor="middle" opacity="1.00"><tspan x="1690.00" dy="16.00">&quot;admin 超级管理员&quot;</tspan></text>
<text x="1090.00" y="57.50" font-size="16" font-family="cursive" fill="#1e1e1e" text-anchor="middle" opacity="1.00"><tspan x="1090.00" dy="16.00">&quot;operator 行政运营&quot;</tspan></text>
<text x="602.00" y="57.50" font-size="16" font-family="cursive" fill="#1e1e1e" text-anchor="middle" opacity="1.00"><tspan x="602.00" dy="16.00">&quot;sales 普通销售&quot;</tspan></text>
<text x="114.00" y="57.50" font-size="16" font-family="cursive" fill="#1e1e1e" text-anchor="middle" opacity="1.00"><tspan x="114.00" dy="16.00">&quot;finance 财务&quot;</tspan></text>
<text x="1983.50" y="1887.55" font-size="16" font-family="cursive" fill="#1e1e1e" text-anchor="middle" opacity="1.00"><tspan x="1983.50" dy="16.00">CONTRIC</tspan></text>
<text x="1161.37" y="647.90" font-size="14" font-family="cursive" fill="#495057" text-anchor="middle" opacity="1.00"><tspan x="1161.37" dy="14.00">RLS: ALL</tspan></text>
<text x="1010.69" y="662.99" font-size="14" font-family="cursive" fill="#495057" text-anchor="middle" opacity="1.00"><tspan x="1010.69" dy="14.00">RLS: ALL</tspan></text>
<text x="788.19" y="895.98" font-size="14" font-family="cursive" fill="#495057" text-anchor="middle" opacity="1.00"><tspan x="788.19" dy="14.00">RLS: ALL</tspan></text>
<text x="1161.38" y="648.16" font-size="14" font-family="cursive" fill="#495057" text-anchor="middle" opacity="1.00"><tspan x="1161.38" dy="14.00">RLS: ALL</tspan></text>
<text x="1010.69" y="784.18" font-size="14" font-family="cursive" fill="#495057" text-anchor="middle" opacity="1.00"><tspan x="1010.69" dy="14.00">RLS: ALL except delete</tspan></text>
<text x="1067.75" y="486.82" font-size="14" font-family="cursive" fill="#495057" text-anchor="middle" opacity="1.00"><tspan x="1067.75" dy="14.00">RLS: 仅自己关联</tspan></text>
<text x="1030.69" y="859.93" font-size="14" font-family="cursive" fill="#495057" text-anchor="middle" opacity="1.00"><tspan x="1030.69" dy="14.00">RLS: 仅自己关联</tspan></text>
<text x="761.87" y="449.84" font-size="14" font-family="cursive" fill="#495057" text-anchor="middle" opacity="1.00"><tspan x="761.87" dy="14.00">RLS: 全部只读</tspan></text>
<text x="732.45" y="652.23" font-size="14" font-family="cursive" fill="#495057" text-anchor="middle" opacity="1.00"><tspan x="732.45" dy="14.00">RLS: 全部 CRU</tspan></text>
</svg>