<svg xmlns="http://www.w3.org/2000/svg" width="3701.00" height="882.21" viewBox="0 0 3701.00 882.21">
<defs>
    <marker id="arr-a0a0a0" markerWidth="10" markerHeight="7" refX="9" refY="3.5" orient="auto"><polygon points="0 0, 10 3.5, 0 7" fill="#a0a0a0"/></marker>
  </defs>
<rect width="3701.00" height="882.21" fill="#1e1e1e"/>
<rect x="1283.62" y="40.00" width="830.00" height="55.00" rx="8" fill="#2d2d2d" stroke="#a0a0a0" stroke-width="2" opacity="1.00"/>
<rect x="277.50" y="396.00" width="700.00" height="55.00" rx="8" fill="#2d2d2d" stroke="#a0a0a0" stroke-width="2" opacity="1.00"/>
<rect x="1249.75" y="396.00" width="785.00" height="55.00" rx="8" fill="#2d2d2d" stroke="#a0a0a0" stroke-width="2" opacity="1.00"/>
<rect x="2400.12" y="396.00" width="700.00" height="55.00" rx="8" fill="#2d2d2d" stroke="#a0a0a0" stroke-width="2" opacity="1.00"/>
<rect x="40.00" y="579.60" width="939.00" height="55.00" rx="8" fill="#2d2d2d" stroke="#a0a0a0" stroke-width="2" opacity="1.00"/>
<rect x="1099.00" y="579.60" width="148.00" height="55.00" rx="8" fill="#2d2d2d" stroke="#a0a0a0" stroke-width="2" opacity="1.00"/>
<rect x="1524.00" y="579.60" width="140.00" height="55.00" rx="8" fill="#2d2d2d" stroke="#a0a0a0" stroke-width="2" opacity="1.00"/>
<rect x="1941.00" y="579.60" width="140.00" height="55.00" rx="8" fill="#2d2d2d" stroke="#a0a0a0" stroke-width="2" opacity="1.00"/>
<rect x="60.00" y="787.21" width="238.00" height="55.00" rx="8" fill="#2d2d2d" stroke="#a0a0a0" stroke-width="2" opacity="1.00"/>
<rect x="418.00" y="787.21" width="220.00" height="55.00" rx="8" fill="#2d2d2d" stroke="#a0a0a0" stroke-width="2" opacity="1.00"/>
<rect x="811.00" y="787.21" width="148.00" height="55.00" rx="8" fill="#2d2d2d" stroke="#a0a0a0" stroke-width="2" opacity="1.00"/>
<rect x="1307.00" y="579.60" width="157.00" height="55.00" rx="8" fill="#2d2d2d" stroke="#a0a0a0" stroke-width="2" opacity="1.00"/>
<rect x="1724.00" y="579.60" width="157.00" height="55.00" rx="8" fill="#2d2d2d" stroke="#a0a0a0" stroke-width="2" opacity="1.00"/>
<rect x="2141.00" y="579.60" width="140.00" height="55.00" rx="8" fill="#2d2d2d" stroke="#a0a0a0" stroke-width="2" opacity="1.00"/>
<rect x="2341.00" y="579.60" width="140.00" height="55.00" rx="8" fill="#2d2d2d" stroke="#a0a0a0" stroke-width="2" opacity="1.00"/>
<rect x="2601.00" y="579.60" width="140.00" height="55.00" rx="8" fill="#2d2d2d" stroke="#a0a0a0" stroke-width="2" opacity="1.00"/>
<rect x="1047.50" y="787.21" width="238.00" height="55.00" rx="8" fill="#2d2d2d" stroke="#a0a0a0" stroke-width="2" opacity="1.00"/>
<rect x="1345.50" y="787.21" width="220.00" height="55.00" rx="8" fill="#2d2d2d" stroke="#a0a0a0" stroke-width="2" opacity="1.00"/>
<rect x="1625.50" y="787.21" width="202.00" height="55.00" rx="8" fill="#2d2d2d" stroke="#a0a0a0" stroke-width="2" opacity="1.00"/>
<rect x="2801.00" y="579.60" width="148.00" height="55.00" rx="8" fill="#2d2d2d" stroke="#a0a0a0" stroke-width="2" opacity="1.00"/>
<rect x="3009.00" y="579.60" width="175.00" height="55.00" rx="8" fill="#2d2d2d" stroke="#a0a0a0" stroke-width="2" opacity="1.00"/>
<rect x="3244.00" y="579.60" width="157.00" height="55.00" rx="8" fill="#2d2d2d" stroke="#a0a0a0" stroke-width="2" opacity="1.00"/>
<rect x="3521.00" y="579.60" width="140.00" height="55.00" rx="8" fill="#2d2d2d" stroke="#a0a0a0" stroke-width="2" opacity="1.00"/>
<rect x="2160.50" y="787.21" width="140.00" height="55.00" rx="8" fill="#2d2d2d" stroke="#a0a0a0" stroke-width="2" opacity="1.00"/>
<rect x="2360.50" y="787.21" width="140.00" height="55.00" rx="8" fill="#2d2d2d" stroke="#a0a0a0" stroke-width="2" opacity="1.00"/>
<rect x="2560.50" y="787.21" width="140.00" height="55.00" rx="8" fill="#2d2d2d" stroke="#a0a0a0" stroke-width="2" opacity="1.00"/>
<rect x="2760.50" y="787.21" width="175.00" height="55.00" rx="8" fill="#2d2d2d" stroke="#a0a0a0" stroke-width="2" opacity="1.00"/>
<path d="M 1495.12,95.00 L 1153.46,215.40 L 969.50,396.00" fill="none" stroke="#a0a0a0" stroke-width="2" opacity="1.00" marker-end="url(#arr-a0a0a0)"/>
<path d="M 1698.62,95.00 L 1698.62,396.00" fill="none" stroke="#a0a0a0" stroke-width="2" opacity="1.00" marker-end="url(#arr-a0a0a0)"/>
<path d="M 1902.12,95.00 L 2231.02,215.40 L 2408.12,396.00" fill="none" stroke="#a0a0a0" stroke-width="2" opacity="1.00" marker-end="url(#arr-a0a0a0)"/>
<path d="M 422.30,451.00 L 627.50,579.60" fill="none" stroke="#a0a0a0" stroke-width="2" opacity="1.00" marker-end="url(#arr-a0a0a0)"/>
<path d="M 559.10,451.00 L 1107.00,579.60" fill="none" stroke="#a0a0a0" stroke-width="2" opacity="1.00" marker-end="url(#arr-a0a0a0)"/>
<path d="M 695.90,451.00 L 1504.00,513.02 L 1504.00,579.60 L 1532.00,579.60" fill="none" stroke="#a0a0a0" stroke-width="2" opacity="1.00" marker-end="url(#arr-a0a0a0)"/>
<path d="M 832.70,451.00 L 1941.00,513.02 L 1941.00,579.60 L 1949.00,579.60" fill="none" stroke="#a0a0a0" stroke-width="2" opacity="1.00" marker-end="url(#arr-a0a0a0)"/>
<path d="M 278.75,634.60 L 290.00,787.21" fill="none" stroke="#a0a0a0" stroke-width="2" opacity="1.00" marker-end="url(#arr-a0a0a0)"/>
<path d="M 509.50,634.60 L 509.50,787.21" fill="none" stroke="#a0a0a0" stroke-width="2" opacity="1.00" marker-end="url(#arr-a0a0a0)"/>
<path d="M 740.25,634.60 L 819.00,787.21" fill="none" stroke="#a0a0a0" stroke-width="2" opacity="1.00" marker-end="url(#arr-a0a0a0)"/>
<path d="M 1385.92,451.00 L 1456.00,579.60" fill="none" stroke="#a0a0a0" stroke-width="2" opacity="1.00" marker-end="url(#arr-a0a0a0)"/>
<path d="M 1514.08,451.00 L 1732.00,579.60" fill="none" stroke="#a0a0a0" stroke-width="2" opacity="1.00" marker-end="url(#arr-a0a0a0)"/>
<path d="M 1642.25,451.00 L 2149.00,579.60" fill="none" stroke="#a0a0a0" stroke-width="2" opacity="1.00" marker-end="url(#arr-a0a0a0)"/>
<path d="M 1770.42,451.00 L 2349.00,579.60" fill="none" stroke="#a0a0a0" stroke-width="2" opacity="1.00" marker-end="url(#arr-a0a0a0)"/>
<path d="M 1898.58,451.00 L 2609.00,579.60" fill="none" stroke="#a0a0a0" stroke-width="2" opacity="1.00" marker-end="url(#arr-a0a0a0)"/>
<path d="M 1315.00,634.60 L 1277.50,787.21" fill="none" stroke="#a0a0a0" stroke-width="2" opacity="1.00" marker-end="url(#arr-a0a0a0)"/>
<path d="M 1732.00,634.60 L 1557.50,787.21" fill="none" stroke="#a0a0a0" stroke-width="2" opacity="1.00" marker-end="url(#arr-a0a0a0)"/>
<path d="M 2149.00,634.60 L 1819.50,787.21" fill="none" stroke="#a0a0a0" stroke-width="2" opacity="1.00" marker-end="url(#arr-a0a0a0)"/>
<path d="M 2544.93,451.00 L 2809.00,579.60" fill="none" stroke="#a0a0a0" stroke-width="2" opacity="1.00" marker-end="url(#arr-a0a0a0)"/>
<path d="M 2681.72,451.00 L 3017.00,579.60" fill="none" stroke="#a0a0a0" stroke-width="2" opacity="1.00" marker-end="url(#arr-a0a0a0)"/>
<path d="M 2818.53,451.00 L 3252.00,579.60" fill="none" stroke="#a0a0a0" stroke-width="2" opacity="1.00" marker-end="url(#arr-a0a0a0)"/>
<path d="M 2955.32,451.00 L 3529.00,579.60" fill="none" stroke="#a0a0a0" stroke-width="2" opacity="1.00" marker-end="url(#arr-a0a0a0)"/>
<path d="M 2853.00,634.60 L 2292.50,787.21" fill="none" stroke="#a0a0a0" stroke-width="2" opacity="1.00" marker-end="url(#arr-a0a0a0)"/>
<path d="M 2897.00,634.60 L 2492.50,787.21" fill="none" stroke="#a0a0a0" stroke-width="2" opacity="1.00" marker-end="url(#arr-a0a0a0)"/>
<path d="M 3070.00,634.60 L 2692.50,787.21" fill="none" stroke="#a0a0a0" stroke-width="2" opacity="1.00" marker-end="url(#arr-a0a0a0)"/>
<path d="M 3123.00,634.60 L 2927.50,787.21" fill="none" stroke="#a0a0a0" stroke-width="2" opacity="1.00" marker-end="url(#arr-a0a0a0)"/>
<text x="1698.63" y="57.50" font-size="16" font-family="cursive" fill="#e0e0e0" text-anchor="middle" opacity="1.00"><tspan x="1698.63" dy="16.00">NewMe CRM v2.1</tspan></text>
<text x="627.50" y="413.50" font-size="16" font-family="cursive" fill="#e0e0e0" text-anchor="middle" opacity="1.00"><tspan x="627.50" dy="16.00">老板 SAM 👑</tspan></text>
<text x="1642.25" y="413.50" font-size="16" font-family="cursive" fill="#e0e0e0" text-anchor="middle" opacity="1.00"><tspan x="1642.25" dy="16.00">运营 Operator 📋</tspan></text>
<text x="2750.12" y="413.50" font-size="16" font-family="cursive" fill="#e0e0e0" text-anchor="middle" opacity="1.00"><tspan x="2750.12" dy="16.00">销售 Tanya 🎯</tspan></text>
<text x="509.50" y="597.10" font-size="16" font-family="cursive" fill="#e0e0e0" text-anchor="middle" opacity="1.00"><tspan x="509.50" dy="16.00">&quot;📊 驾驶舱 Dashboard&quot;</tspan></text>
<text x="1173.00" y="597.10" font-size="16" font-family="cursive" fill="#e0e0e0" text-anchor="middle" opacity="1.00"><tspan x="1173.00" dy="16.00">&quot;🔍 线索管道（只读）&quot;</tspan></text>
<text x="1594.00" y="597.10" font-size="16" font-family="cursive" fill="#e0e0e0" text-anchor="middle" opacity="1.00"><tspan x="1594.00" dy="16.00">&quot;💰 回款看板&quot;</tspan></text>
<text x="2011.00" y="597.10" font-size="16" font-family="cursive" fill="#e0e0e0" text-anchor="middle" opacity="1.00"><tspan x="2011.00" dy="16.00">&quot;👥 团队概况&quot;</tspan></text>
<text x="179.00" y="804.71" font-size="16" font-family="cursive" fill="#e0e0e0" text-anchor="middle" opacity="1.00"><tspan x="179.00" dy="16.00">&quot;4 KPI: 管道总额/签约/回款/逾期&quot;</tspan></text>
<text x="528.00" y="804.71" font-size="16" font-family="cursive" fill="#e0e0e0" text-anchor="middle" opacity="1.00"><tspan x="528.00" dy="16.00">&quot;🔴 预警区块: 红线线索/逾期/停摆&quot;</tspan></text>
<text x="885.00" y="804.71" font-size="16" font-family="cursive" fill="#e0e0e0" text-anchor="middle" opacity="1.00"><tspan x="885.00" dy="16.00">&quot;📈 管道漏斗（简版）&quot;</tspan></text>
<text x="1385.50" y="597.10" font-size="16" font-family="cursive" fill="#e0e0e0" text-anchor="middle" opacity="1.00"><tspan x="1385.50" dy="16.00">&quot;⏰ 待办工作台（首页）&quot;</tspan></text>
<text x="1802.50" y="597.10" font-size="16" font-family="cursive" fill="#e0e0e0" text-anchor="middle" opacity="1.00"><tspan x="1802.50" dy="16.00">&quot;📋 合同管理 CRUD&quot;</tspan></text>
<text x="2211.00" y="597.10" font-size="16" font-family="cursive" fill="#e0e0e0" text-anchor="middle" opacity="1.00"><tspan x="2211.00" dy="16.00">&quot;💰 回款管理&quot;</tspan></text>
<text x="2411.00" y="597.10" font-size="16" font-family="cursive" fill="#e0e0e0" text-anchor="middle" opacity="1.00"><tspan x="2411.00" dy="16.00">&quot;📊 项目交付&quot;</tspan></text>
<text x="2671.00" y="597.10" font-size="16" font-family="cursive" fill="#e0e0e0" text-anchor="middle" opacity="1.00"><tspan x="2671.00" dy="16.00">&quot;📦 产品库&quot;</tspan></text>
<text x="1166.50" y="804.71" font-size="16" font-family="cursive" fill="#e0e0e0" text-anchor="middle" opacity="1.00"><tspan x="1166.50" dy="16.00">&quot;待确认回款 / 待更新交付 / 逾期提醒&quot;</tspan></text>
<text x="1455.50" y="804.71" font-size="16" font-family="cursive" fill="#e0e0e0" text-anchor="middle" opacity="1.00"><tspan x="1455.50" dy="16.00">&quot;分期计划 / 交付计划 / 合同文件&quot;</tspan></text>
<text x="1726.50" y="804.71" font-size="16" font-family="cursive" fill="#e0e0e0" text-anchor="middle" opacity="1.00"><tspan x="1726.50" dy="16.00">&quot;回款登记 / 确认到账 / 统计&quot;</tspan></text>
<text x="2875.00" y="597.10" font-size="16" font-family="cursive" fill="#e0e0e0" text-anchor="middle" opacity="1.00"><tspan x="2875.00" dy="16.00">&quot;📋 今日待办（首页）&quot;</tspan></text>
<text x="3096.50" y="597.10" font-size="16" font-family="cursive" fill="#e0e0e0" text-anchor="middle" opacity="1.00"><tspan x="3096.50" dy="16.00">&quot;🎯 我的管道 Kanban&quot;</tspan></text>
<text x="3322.50" y="597.10" font-size="16" font-family="cursive" fill="#e0e0e0" text-anchor="middle" opacity="1.00"><tspan x="3322.50" dy="16.00">&quot;📈 我的业绩（无金额）&quot;</tspan></text>
<text x="3591.00" y="597.10" font-size="16" font-family="cursive" fill="#e0e0e0" text-anchor="middle" opacity="1.00"><tspan x="3591.00" dy="16.00">&quot;👤 我的客户&quot;</tspan></text>
<text x="2230.50" y="804.71" font-size="16" font-family="cursive" fill="#e0e0e0" text-anchor="middle" opacity="1.00"><tspan x="2230.50" dy="16.00">&quot;优先级排序算法&quot;</tspan></text>
<text x="2430.50" y="804.71" font-size="16" font-family="cursive" fill="#e0e0e0" text-anchor="middle" opacity="1.00"><tspan x="2430.50" dy="16.00">&quot;快速跟进记录&quot;</tspan></text>
<text x="2630.50" y="804.71" font-size="16" font-family="cursive" fill="#e0e0e0" text-anchor="middle" opacity="1.00"><tspan x="2630.50" dy="16.00">&quot;拖拽推进阶段&quot;</tspan></text>
<text x="2848.00" y="804.71" font-size="16" font-family="cursive" fill="#e0e0e0" text-anchor="middle" opacity="1.00"><tspan x="2848.00" dy="16.00">&quot;创建报价 / 标记成交丢单&quot;</tspan></text>
</svg>